<svg width="16" height="16" viewBox="0 0 16 16" fill="none" xmlns="http://www.w3.org/2000/svg">
    <path d="M15.9683 1.68422C15.9557 1.62517 15.9276 1.57057 15.8868 1.52561C15.846 1.48066 15.794 1.44695 15.7363 1.42822C15.4936 1.35422 15.2289 1.39222 15.0163 1.52822L0.516251 8.52822C0.284197 8.65932 0.114149 8.88467 0.0426509 9.15159C-0.0288475 9.41852 0.00469021 9.70378 0.137251 9.94822C0.266729 10.1829 0.484012 10.3563 0.741251 10.4322L4.31625 11.4322L13.0163 4.52822L6.51625 12.0282V14.5282C6.51558 14.8055 6.60298 15.0749 6.76637 15.2971C6.92976 15.5193 7.16086 15.6824 7.42625 15.7622C7.69164 15.8421 7.97655 15.8339 8.23712 15.739C8.49769 15.6441 8.71772 15.4679 8.86625 15.2362L10.5163 12.7362L13.9163 13.7362C14.1304 13.7873 14.3547 13.7818 14.5664 13.7205C14.778 13.6591 14.9694 13.5441 15.1217 13.3867C15.274 13.2293 15.3821 13.0346 15.4362 12.8212C15.4902 12.6077 15.4883 12.3831 15.4303 12.1702L15.9683 1.68422Z" fill="currentColor"/>
</svg> 