<svg width="16" height="16" viewBox="0 0 16 16" fill="none" xmlns="http://www.w3.org/2000/svg">
    <path d="M15.5 3.36c-.59.26-1.22.44-1.88.52.68-.41 1.2-1.05 1.44-1.82-.63.37-1.33.64-2.07.79-.59-.63-1.44-1.02-2.37-1.02-1.79 0-3.24 1.45-3.24 3.24 0 .25.03.5.08.74-2.69-.14-5.08-1.42-6.68-3.38-.28.48-.44 1.04-.44 1.63 0 1.12.57 2.11 1.44 2.69-.53-.02-1.03-.16-1.46-.4v.04c0 1.57 1.12 2.88 2.6 3.18-.27.07-.56.11-.85.11-.21 0-.41-.02-.61-.06.41 1.29 1.61 2.23 3.03 2.26-1.11.87-2.51 1.39-4.03 1.39-.26 0-.52-.02-.77-.05 1.44.92 3.15 1.46 4.99 1.46 5.98 0 9.25-4.95 9.25-9.25 0-.14 0-.28-.01-.42.64-.46 1.19-1.03 1.63-1.68z" fill="currentColor"/>
</svg> 